<?xml version="1.0" standalone="no"?>
<!DOCTYPE svg PUBLIC "-//W3C//DTD SVG 20010904//EN"
 "http://www.w3.org/TR/2001/REC-SVG-20010904/DTD/svg10.dtd">
<svg version="1.0" xmlns="http://www.w3.org/2000/svg"
 width="512.000000pt" height="512.000000pt" viewBox="0 0 512.000000 512.000000"
 preserveAspectRatio="xMidYMid meet">

<g transform="translate(0.000000,512.000000) scale(0.100000,-0.100000)"
fill="#ffffff" stroke="none">
<path d="M2495 4358 c-58 -45 -55 26 -55 -1405 l0 -1318 -397 397 c-434 433
-427 427 -506 395 -65 -28 -93 -105 -60 -164 10 -18 248 -260 530 -538 l512
-505 48 0 48 0 517 518 c452 452 517 522 523 554 15 82 -61 158 -143 144 -32
-6 -85 -55 -429 -402 l-393 -395 0 1316 c0 1095 -2 1321 -14 1349 -20 48 -61
76 -111 76 -28 0 -51 -7 -70 -22z"/>
<path d="M811 2307 c-19 -7 -44 -25 -55 -40 -21 -28 -21 -37 -24 -622 -3 -669
-2 -681 67 -820 22 -44 61 -103 86 -132 61 -70 175 -144 266 -174 l74 -24
1335 0 1335 0 74 24 c91 30 205 104 266 174 25 29 64 88 86 132 69 139 70 151
67 820 -3 584 -3 594 -24 622 -11 15 -39 34 -62 41 -37 12 -46 12 -79 -5 -20
-10 -46 -31 -57 -46 -21 -28 -21 -42 -26 -645 l-5 -617 -28 -56 c-34 -70 -109
-142 -185 -177 l-57 -27 -1305 0 -1305 0 -57 27 c-76 35 -151 107 -185 177
l-28 56 -5 615 c-5 567 -6 618 -23 643 -35 53 -91 74 -146 54z"/>
</g>
</svg>
